<?xml version="1.0" encoding="UTF-8"?>
<!DOCTYPE svg PUBLIC "-//W3C//DTD SVG 1.1//EN" "http://www.w3.org/Graphics/SVG/1.1/DTD/svg11.dtd">
<svg xmlns="http://www.w3.org/2000/svg" version="1.1" width="126px" height="150px" style="shape-rendering:geometricPrecision; text-rendering:geometricPrecision; image-rendering:optimizeQuality; fill-rule:evenodd; clip-rule:evenodd" xmlns:xlink="http://www.w3.org/1999/xlink">
<g><path style="opacity:0.823" fill="#fffefe" d="M 116.5,44.5 C 116.22,48.2253 114.22,49.392 110.5,48C 109.756,46.1852 109.089,44.3519 108.5,42.5C 103.933,28.7601 94.9332,18.9268 81.5,13C 63.0177,6.82109 45.6843,9.48775 29.5,21C 24.7236,26.3861 21.3902,32.5528 19.5,39.5C 18.8333,39.5 18.5,39.8333 18.5,40.5C 16.9752,42.2163 15.9752,44.2163 15.5,46.5C 12.8333,49.1667 10.1667,49.1667 7.5,46.5C 12.91,15.4168 31.5766,0.416821 63.5,1.5C 88.3804,1.01139 105.88,12.0114 116,34.5C 116.498,37.8168 116.665,41.1501 116.5,44.5 Z M 108.5,42.5 C 106.861,40.1939 104.861,38.1939 102.5,36.5C 100.858,35.197 99.1911,33.8637 97.5,32.5C 96.7095,31.5987 95.7095,30.9321 94.5,30.5C 93.7095,29.5987 92.7095,28.9321 91.5,28.5C 89.351,27.2638 87.0177,26.2638 84.5,25.5C 84.1583,24.6618 83.4916,24.3284 82.5,24.5C 58.512,16.4876 37.512,21.4876 19.5,39.5C 21.3902,32.5528 24.7236,26.3861 29.5,21C 45.6843,9.48775 63.0177,6.82109 81.5,13C 94.9332,18.9268 103.933,28.7601 108.5,42.5 Z"/></g>
<g><path style="opacity:0.999" fill="#ff9906" d="M 82.5,24.5 C 78.5962,24.0615 76.0962,25.7282 75,29.5C 72.5363,39.9807 69.703,50.4807 66.5,61C 64.1294,63.6164 62.9627,66.783 63,70.5C 61.1874,73.3883 59.5208,76.3883 58,79.5C 57.9735,83.3856 56.4735,86.5523 53.5,89C 53.9574,89.414 54.2907,89.914 54.5,90.5C 50.7202,98.3259 47.2202,106.326 44,114.5C 42.7856,120.286 40.9523,125.786 38.5,131C 39.056,131.383 39.3893,131.883 39.5,132.5C 27.0726,127.577 17.5726,119.243 11,107.5C 5.81992,97.1127 3.31992,86.1127 3.5,74.5C 4.26739,75.172 4.93406,76.0053 5.5,77C 10.5,77.6667 15.5,77.6667 20.5,77C 21.428,76.6121 22.0946,75.9454 22.5,75C 23.6212,66.8697 23.7879,58.703 23,50.5C 21.4612,47.4792 18.9612,46.1459 15.5,46.5C 15.9752,44.2163 16.9752,42.2163 18.5,40.5C 19.1667,40.5 19.5,40.1667 19.5,39.5C 37.512,21.4876 58.512,16.4876 82.5,24.5 Z"/></g>
<g><path style="opacity:1" fill="#ff9303" d="M 82.5,24.5 C 83.4916,24.3284 84.1583,24.6618 84.5,25.5C 79.3254,35.1892 75.8254,45.5225 74,56.5C 65.4843,77.3931 56.9843,98.2264 48.5,119C 48.8333,119.333 49.1667,119.667 49.5,120C 47.15,124.558 45.4833,129.391 44.5,134.5C 42.4471,134.598 40.7804,133.931 39.5,132.5C 39.3893,131.883 39.056,131.383 38.5,131C 40.9523,125.786 42.7856,120.286 44,114.5C 47.2202,106.326 50.7202,98.3259 54.5,90.5C 54.2907,89.914 53.9574,89.414 53.5,89C 56.4735,86.5523 57.9735,83.3856 58,79.5C 59.5208,76.3883 61.1874,73.3883 63,70.5C 62.9627,66.783 64.1294,63.6164 66.5,61C 69.703,50.4807 72.5363,39.9807 75,29.5C 76.0962,25.7282 78.5962,24.0615 82.5,24.5 Z"/></g>
<g><path style="opacity:0.999" fill="#ff8c06" d="M 84.5,25.5 C 87.0177,26.2638 89.351,27.2638 91.5,28.5C 89.3763,29.0312 87.8763,30.3645 87,32.5C 83.2424,41.8637 80.5757,51.5304 79,61.5C 68.2139,85.5053 58.3805,110.005 49.5,135C 50.7375,135.232 51.7375,135.732 52.5,136.5C 49.5718,136.435 46.9052,135.768 44.5,134.5C 45.4833,129.391 47.15,124.558 49.5,120C 49.1667,119.667 48.8333,119.333 48.5,119C 56.9843,98.2264 65.4843,77.3931 74,56.5C 75.8254,45.5225 79.3254,35.1892 84.5,25.5 Z"/></g>
<g><path style="opacity:0.999" fill="#ff7d0d" d="M 91.5,28.5 C 92.7095,28.9321 93.7095,29.5987 94.5,30.5C 92.2145,33.4627 90.3812,36.796 89,40.5C 86.6667,49.5 84.3333,58.5 82,67.5C 72.4015,88.2814 63.5682,109.448 55.5,131C 56.0966,132.628 55.7633,134.295 54.5,136C 55.7932,136.49 57.1266,136.657 58.5,136.5C 59.8333,136.5 61.1667,136.5 62.5,136.5C 64.8333,136.5 67.1667,136.5 69.5,136.5C 63.9327,137.804 58.266,137.804 52.5,136.5C 51.7375,135.732 50.7375,135.232 49.5,135C 58.3805,110.005 68.2139,85.5053 79,61.5C 80.5757,51.5304 83.2424,41.8637 87,32.5C 87.8763,30.3645 89.3763,29.0312 91.5,28.5 Z"/></g>
<g><path style="opacity:1" fill="#ff7006" d="M 94.5,30.5 C 95.7095,30.9321 96.7095,31.5987 97.5,32.5C 94.5051,36.3517 92.8385,40.5184 92.5,45C 89.8791,53.7912 87.3791,62.6246 85,71.5C 74.6865,92.6177 65.8531,114.284 58.5,136.5C 57.1266,136.657 55.7932,136.49 54.5,136C 55.7633,134.295 56.0966,132.628 55.5,131C 63.5682,109.448 72.4015,88.2814 82,67.5C 84.3333,58.5 86.6667,49.5 89,40.5C 90.3812,36.796 92.2145,33.4627 94.5,30.5 Z"/></g>
<g><path style="opacity:0.999" fill="#ff6309" d="M 97.5,32.5 C 99.1911,33.8637 100.858,35.197 102.5,36.5C 100.112,37.2187 98.6119,38.8854 98,41.5C 96.6173,47.0789 95.1173,52.5789 93.5,58C 94.4581,59.1475 94.1247,60.1475 92.5,61C 92.8333,61.3333 93.1667,61.6667 93.5,62C 84.9652,81.809 76.1319,101.976 67,122.5C 65.4945,127.197 63.9945,131.863 62.5,136.5C 61.1667,136.5 59.8333,136.5 58.5,136.5C 65.8531,114.284 74.6865,92.6177 85,71.5C 87.3791,62.6246 89.8791,53.7912 92.5,45C 92.8385,40.5184 94.5051,36.3517 97.5,32.5 Z"/></g>
<g><path style="opacity:0.999" fill="#ff530c" d="M 102.5,36.5 C 104.861,38.1939 106.861,40.1939 108.5,42.5C 109.089,44.3519 109.756,46.1852 110.5,48C 114.22,49.392 116.22,48.2253 116.5,44.5C 117.833,44.5 119.167,44.5 120.5,44.5C 120.67,53.7015 120.67,62.7015 120.5,71.5C 120.631,70.7611 120.464,70.0944 120,69.5C 115.409,72.3674 111.076,72.034 107,68.5C 106.667,62.5 106.333,56.5 106,50.5C 104.092,57.8918 101.592,65.0585 98.5,72C 98.8333,72.3333 99.1667,72.6667 99.5,73C 98.1811,75.2852 96.6811,77.4518 95,79.5C 94.5873,82.8434 93.0873,86.01 90.5,89C 89.3906,94.2178 87.0573,99.2178 83.5,104C 83.8333,104.333 84.1667,104.667 84.5,105C 78.7196,114.627 74.053,124.793 70.5,135.5C 72.1667,135.5 73.8333,135.5 75.5,135.5C 73.7354,136.461 71.7354,136.795 69.5,136.5C 67.1667,136.5 64.8333,136.5 62.5,136.5C 63.9945,131.863 65.4945,127.197 67,122.5C 76.1319,101.976 84.9652,81.809 93.5,62C 93.1667,61.6667 92.8333,61.3333 92.5,61C 94.1247,60.1475 94.4581,59.1475 93.5,58C 95.1173,52.5789 96.6173,47.0789 98,41.5C 98.6119,38.8854 100.112,37.2187 102.5,36.5 Z"/></g>
<g><path style="opacity:0.989" fill="#ff5600" d="M 7.5,46.5 C 10.1667,49.1667 12.8333,49.1667 15.5,46.5C 18.9612,46.1459 21.4612,47.4792 23,50.5C 23.7879,58.703 23.6212,66.8697 22.5,75C 22.0946,75.9454 21.428,76.6121 20.5,77C 15.5,77.6667 10.5,77.6667 5.5,77C 4.93406,76.0053 4.26739,75.172 3.5,74.5C 3.33356,65.4938 3.50023,56.4938 4,47.5C 5.01127,46.6634 6.17793,46.33 7.5,46.5 Z"/></g>
<g><path style="opacity:0.999" fill="#ff480f" d="M 120.5,71.5 C 121.778,76.1982 121.778,80.8648 120.5,85.5C 117.565,89.8046 114.232,93.9712 110.5,98C 110.833,98.3333 111.167,98.6667 111.5,99C 109.473,101.094 107.806,103.427 106.5,106C 106.957,106.414 107.291,106.914 107.5,107.5C 103.382,110.949 101.382,115.282 101.5,120.5C 94.401,128.055 85.7343,133.055 75.5,135.5C 73.8333,135.5 72.1667,135.5 70.5,135.5C 74.053,124.793 78.7196,114.627 84.5,105C 84.1667,104.667 83.8333,104.333 83.5,104C 87.0573,99.2178 89.3906,94.2178 90.5,89C 93.0873,86.01 94.5873,82.8434 95,79.5C 96.6811,77.4518 98.1811,75.2852 99.5,73C 99.1667,72.6667 98.8333,72.3333 98.5,72C 101.592,65.0585 104.092,57.8918 106,50.5C 106.333,56.5 106.667,62.5 107,68.5C 111.076,72.034 115.409,72.3674 120,69.5C 120.464,70.0944 120.631,70.7611 120.5,71.5 Z"/></g>
<g><path style="opacity:0.995" fill="#ff6120" d="M 120.5,85.5 C 119.102,99.9704 112.769,111.637 101.5,120.5C 101.382,115.282 103.382,110.949 107.5,107.5C 107.291,106.914 106.957,106.414 106.5,106C 107.806,103.427 109.473,101.094 111.5,99C 111.167,98.6667 110.833,98.3333 110.5,98C 114.232,93.9712 117.565,89.8046 120.5,85.5 Z"/></g>
</svg>
